<svg xmlns="http://www.w3.org/2000/svg" viewBox="0 0 100 100"><g stroke-width="0.5" stroke-linejoin="round"><polygon points="35.5,33 41.5,31.5 38.5,20 31.5,22.5" fill="#a38461" stroke="#a38461"/><polygon points="68.5,22.5 61.5,20 58.5,31.5 64.5,33" fill="#9c7b58" stroke="#9c7b58"/><polygon points="41.5,31.5 45,30 38.5,20" fill="#8d6a48" stroke="#8d6a48"/><polygon points="61.5,20 55,30 58.5,31.5" fill="#866140" stroke="#866140"/><polygon points="31.5,23.5 38.5,20 30.5,11.5 24,16" fill="#aa8d6a" stroke="#aa8d6a"/><polygon points="76,16 69.5,11.5 61.5,20 68.5,23.5" fill="#a38461" stroke="#a38461"/><polygon points="38.5,20 32,13 30.5,11.5" fill="#947250" stroke="#947250"/><polygon points="69.5,11.5 68,13 61.5,20" fill="#8d6a48" stroke="#8d6a48"/><polygon points="24,16 30.5,11.5 15.5,8" fill="#b19674" stroke="#b19674"/><polygon points="84.5,8 69.5,11.5 76,16" fill="#aa8d6a" stroke="#aa8d6a"/><polygon points="30.5,21.5 35,19.5 36.5,7" fill="#aa8d6a" stroke="#aa8d6a"/><polygon points="63.5,7 65,19.5 69.5,21.5" fill="#a38461" stroke="#a38461"/><polygon points="35,19.5 39.5,19 36.5,7" fill="#8d6a48" stroke="#8d6a48"/><polygon points="63.5,7 60.5,19 65,19.5" fill="#866140" stroke="#866140"/><polygon points="7,27 11.5,16.5 15,21 11,27.5" fill="#c78d5f" stroke="#c78d5f"/><polygon points="89,27.5 85,21 88.5,16.5 93,27" fill="#c08455" stroke="#c08455"/><polygon points="11.5,16.5 29,30 25,36 15,21" fill="#cd9768" stroke="#cd9768"/><polygon points="85,21 75,36 71,30 88.5,16.5" fill="#c78d5f" stroke="#c78d5f"/><polygon points="7,27 11,27.5 14,36 9.5,40" fill="#aa683b" stroke="#aa683b"/><polygon points="90.5,40 86,36 89,27.5 93,27" fill="#a25f33" stroke="#a25f33"/><polygon points="9.5,40 14,36 25,36 23,47" fill="#a25f33" stroke="#a25f33"/><polygon points="77,47 75,36 86,36 90.5,40" fill="#9a562b" stroke="#9a562b"/><polygon points="11,27.5 15,21 25,36" fill="#eae6de" stroke="#eae6de"/><polygon points="75,36 85,21 89,27.5" fill="#e1ddd5" stroke="#e1ddd5"/><polygon points="11,27.5 25,36 14,36" fill="#e1ddd5" stroke="#e1ddd5"/><polygon points="86,36 75,36 89,27.5" fill="#d9d4cc" stroke="#d9d4cc"/><polygon points="39.5,28.5 50,29 35.5,37.5" fill="#d4a073" stroke="#d4a073"/><polygon points="64.5,37.5 50,29 60.5,28.5" fill="#cd9768" stroke="#cd9768"/><polygon points="50,29 50,40 35.5,37.5" fill="#c78d5f" stroke="#c78d5f"/><polygon points="64.5,37.5 50,40 50,29" fill="#c08455" stroke="#c08455"/><polygon points="28.5,30.5 39.5,28.5 35.5,37.5" fill="#cd9768" stroke="#cd9768"/><polygon points="64.5,37.5 60.5,28.5 71.5,30.5" fill="#c78d5f" stroke="#c78d5f"/><polygon points="19.5,37.5 28.5,30.5 35.5,37.5" fill="#c78d5f" stroke="#c78d5f"/><polygon points="64.5,37.5 71.5,30.5 80.5,37.5" fill="#c08455" stroke="#c08455"/><polygon points="19.5,37.5 35.5,37.5 23,47.5" fill="#b97a4b" stroke="#b97a4b"/><polygon points="77,47.5 64.5,37.5 80.5,37.5" fill="#b17143" stroke="#b17143"/><polygon points="35.5,37.5 50,40 41,46.5" fill="#c08455" stroke="#c08455"/><polygon points="59,46.5 50,40 64.5,37.5" fill="#b97a4b" stroke="#b97a4b"/><polygon points="35.5,37.5 41,46.5 23,47.5" fill="#aa683b" stroke="#aa683b"/><polygon points="77,47.5 59,46.5 64.5,37.5" fill="#a25f33" stroke="#a25f33"/><polygon points="19.5,37.5 23,47.5 15.5,48.5" fill="#c08455" stroke="#c08455"/><polygon points="84.5,48.5 77,47.5 80.5,37.5" fill="#b97a4b" stroke="#b97a4b"/><polygon points="50,40 50,55 41,46.5" fill="#c78d5f" stroke="#c78d5f"/><polygon points="59,46.5 50,55 50,40" fill="#c08455" stroke="#c08455"/><polygon points="41,46.5 50,55 41,61" fill="#b97a4b" stroke="#b97a4b"/><polygon points="59,61 50,55 59,46.5" fill="#b17143" stroke="#b17143"/><polygon points="23,47.5 41,46.5 41,61 25.5,62" fill="#b17143" stroke="#b17143"/><polygon points="74.5,62 59,61 59,46.5 77,47.5" fill="#aa683b" stroke="#aa683b"/><polygon points="15.5,48.5 23,47.5 25.5,62 17.5,60.5" fill="#b97a4b" stroke="#b97a4b"/><polygon points="82.5,60.5 74.5,62 77,47.5 84.5,48.5" fill="#b17143" stroke="#b17143"/><polygon points="17.5,60.5 25.5,62 23.5,71" fill="#aa683b" stroke="#aa683b"/><polygon points="76.5,71 74.5,62 82.5,60.5" fill="#a25f33" stroke="#a25f33"/><polygon points="25.5,62 41,61 42,70 33.5,74" fill="#b17143" stroke="#b17143"/><polygon points="66.5,74 58,70 59,61 74.5,62" fill="#aa683b" stroke="#aa683b"/><polygon points="41,61 50,55 50,69 42,70" fill="#c08455" stroke="#c08455"/><polygon points="58,70 50,69 50,55 59,61" fill="#b97a4b" stroke="#b97a4b"/><polygon points="23.5,71 25.5,62 33.5,74" fill="#aa683b" stroke="#aa683b"/><polygon points="66.5,74 74.5,62 76.5,71" fill="#a25f33" stroke="#a25f33"/><polygon points="23.5,71 33.5,74 32,79.5" fill="#a25f33" stroke="#a25f33"/><polygon points="68,79.5 66.5,74 76.5,71" fill="#9a562b" stroke="#9a562b"/><polygon points="33.5,74 42,70 42,78.5 32,79.5" fill="#eae6de" stroke="#eae6de"/><polygon points="68,79.5 58,78.5 58,70 66.5,74" fill="#e1ddd5" stroke="#e1ddd5"/><polygon points="42,70 50,69 50,77 42,78.5" fill="#f3efe7" stroke="#f3efe7"/><polygon points="58,78.5 50,77 50,69 58,70" fill="#eae6de" stroke="#eae6de"/><polygon points="32,79.5 42,78.5 40.5,87" fill="#e1ddd5" stroke="#e1ddd5"/><polygon points="59.5,87 58,78.5 68,79.5" fill="#d9d4cc" stroke="#d9d4cc"/><polygon points="42,78.5 50,77 50,90.5 40.5,87" fill="#e1ddd5" stroke="#e1ddd5"/><polygon points="59.5,87 50,90.5 50,77 58,78.5" fill="#d9d4cc" stroke="#d9d4cc"/><polygon points="25.4,51 27.6,46.8 32.5,44.9 37.4,46.8 39.6,51" fill="#2b3054" stroke="#2b3054"/><polygon points="60.4,51 62.6,46.8 67.5,44.9 72.4,46.8 74.6,51" fill="#2b3054" stroke="#2b3054"/><polygon points="25.4,51 39.6,51 37.4,55.2 32.5,56.9 27.6,55.2" fill="#1f2340" stroke="#1f2340"/><polygon points="72.4,55.2 67.5,56.9 62.6,55.2 60.4,51 74.6,51" fill="#1f2340" stroke="#1f2340"/><polygon points="28.3,48.2 32.5,46.6 30,51.2" fill="#f3efe7" stroke="#f3efe7"/><polygon points="63.3,48.2 67.5,46.6 65,51.2" fill="#f3efe7" stroke="#f3efe7"/><polygon points="43,76 50,74.5 50,79.5" fill="#2b3054" stroke="#2b3054"/><polygon points="50,79.5 50,74.5 57,76" fill="#2b3054" stroke="#2b3054"/><polygon points="43,76 50,79.5 50,84 46,82" fill="#1f2340" stroke="#1f2340"/><polygon points="54,82 50,84 50,79.5 57,76" fill="#1f2340" stroke="#1f2340"/><polygon points="44.6,76.2 48.6,75.3 46.4,77.8" fill="#5b6088" stroke="#5b6088"/><polygon points="49.3,83.5 50.7,83.5 50.7,85.6 49.3,85.6" fill="#1f2340" stroke="#1f2340"/><polygon points="50,85 50,86.5 47.4,86.4 45.6,84.6 46.6,84 48,85.2" fill="#1f2340" stroke="#1f2340"/><polygon points="52,85.2 53.4,84 54.4,84.6 52.6,86.4 50,86.5 50,85" fill="#1f2340" stroke="#1f2340"/></g></svg>
