<svg xmlns="http://www.w3.org/2000/svg" viewBox="0 0 100 100"><g stroke-width="0.5" stroke-linejoin="round"><polygon points="16,7 11,41 14.5,35 18.5,15" fill="#ef8e50" stroke="#ef8e50"/><polygon points="81.5,15 85.5,35 89,41 84,7" fill="#e98345" stroke="#e98345"/><polygon points="16,7 18.5,15 32,27.5 38,26" fill="#e2783a" stroke="#e2783a"/><polygon points="62,26 68,27.5 81.5,15 84,7" fill="#da6e32" stroke="#da6e32"/><polygon points="14.5,35 11,41 38,26 32,27.5" fill="#d26429" stroke="#d26429"/><polygon points="68,27.5 62,26 89,41 85.5,35" fill="#ca5a20" stroke="#ca5a20"/><polygon points="18.5,15 14.5,35 23,24" fill="#4b251b" stroke="#4b251b"/><polygon points="77,24 85.5,35 81.5,15" fill="#441e15" stroke="#441e15"/><polygon points="18.5,15 23,24 32,27.5" fill="#5a3428" stroke="#5a3428"/><polygon points="68,27.5 77,24 81.5,15" fill="#532c22" stroke="#532c22"/><polygon points="14.5,35 32,27.5 23,24" fill="#eae6de" stroke="#eae6de"/><polygon points="77,24 68,27.5 85.5,35" fill="#e1ddd5" stroke="#e1ddd5"/><polygon points="14.5,35 23,24 21,31" fill="#f3efe7" stroke="#f3efe7"/><polygon points="79,31 77,24 85.5,35" fill="#eae6de" stroke="#eae6de"/><polygon points="16,7 14.9,15.5 18.5,15 24.5,13.2" fill="#3b2a2c" stroke="#3b2a2c"/><polygon points="75.5,13.2 81.5,15 85.1,15.5 84,7" fill="#342326" stroke="#342326"/><polygon points="38,26 50,30 35,36" fill="#fca366" stroke="#fca366"/><polygon points="65,36 50,30 62,26" fill="#f5995b" stroke="#f5995b"/><polygon points="50,30 50,42 35,36" fill="#ef8e50" stroke="#ef8e50"/><polygon points="65,36 50,42 50,30" fill="#e98345" stroke="#e98345"/><polygon points="11,41 38,26 35,36" fill="#ef8e50" stroke="#ef8e50"/><polygon points="65,36 62,26 89,41" fill="#e98345" stroke="#e98345"/><polygon points="11,41 35,36 21,46" fill="#e2783a" stroke="#e2783a"/><polygon points="79,46 65,36 89,41" fill="#da6e32" stroke="#da6e32"/><polygon points="11,41 21,46 9,51" fill="#ef8e50" stroke="#ef8e50"/><polygon points="91,51 79,46 89,41" fill="#e98345" stroke="#e98345"/><polygon points="35,36 50,42 41,48" fill="#e2783a" stroke="#e2783a"/><polygon points="59,48 50,42 65,36" fill="#da6e32" stroke="#da6e32"/><polygon points="35,36 41,48 21,46" fill="#d26429" stroke="#d26429"/><polygon points="79,46 59,48 65,36" fill="#ca5a20" stroke="#ca5a20"/><polygon points="9,51 21,46 23,59" fill="#e2783a" stroke="#e2783a"/><polygon points="77,59 79,46 91,51" fill="#da6e32" stroke="#da6e32"/><polygon points="21,46 41,48 37,63 23,59" fill="#d26429" stroke="#d26429"/><polygon points="77,59 63,63 59,48 79,46" fill="#ca5a20" stroke="#ca5a20"/><polygon points="50,42 50,58 41,48" fill="#ef8e50" stroke="#ef8e50"/><polygon points="59,48 50,58 50,42" fill="#e98345" stroke="#e98345"/><polygon points="41,48 50,58 37,63" fill="#e2783a" stroke="#e2783a"/><polygon points="63,63 50,58 59,48" fill="#da6e32" stroke="#da6e32"/><polygon points="37,63 50,58 42,71" fill="#d26429" stroke="#d26429"/><polygon points="58,71 50,58 63,63" fill="#ca5a20" stroke="#ca5a20"/><polygon points="50,58 50,80.5 42,71" fill="#e2783a" stroke="#e2783a"/><polygon points="58,71 50,80.5 50,58" fill="#da6e32" stroke="#da6e32"/><polygon points="42,71 50,80.5 44,79" fill="#d26429" stroke="#d26429"/><polygon points="56,79 50,80.5 58,71" fill="#ca5a20" stroke="#ca5a20"/><polygon points="9,51 23,59 7,61" fill="#f3efe7" stroke="#f3efe7"/><polygon points="93,61 77,59 91,51" fill="#eae6de" stroke="#eae6de"/><polygon points="23,59 16,64 7,61" fill="#eae6de" stroke="#eae6de"/><polygon points="93,61 84,64 77,59" fill="#e1ddd5" stroke="#e1ddd5"/><polygon points="23,59 21,70 16,64" fill="#f3efe7" stroke="#f3efe7"/><polygon points="84,64 79,70 77,59" fill="#eae6de" stroke="#eae6de"/><polygon points="23,59 37,63 21,70" fill="#f3efe7" stroke="#f3efe7"/><polygon points="79,70 63,63 77,59" fill="#eae6de" stroke="#eae6de"/><polygon points="16,64 21,70 11,72" fill="#e1ddd5" stroke="#e1ddd5"/><polygon points="89,72 79,70 84,64" fill="#d9d4cc" stroke="#d9d4cc"/><polygon points="11,72 21,70 30,81" fill="#e1ddd5" stroke="#e1ddd5"/><polygon points="70,81 79,70 89,72" fill="#d9d4cc" stroke="#d9d4cc"/><polygon points="21,70 37,63 42,71 35,76" fill="#eae6de" stroke="#eae6de"/><polygon points="65,76 58,71 63,63 79,70" fill="#e1ddd5" stroke="#e1ddd5"/><polygon points="21,70 35,76 30,81" fill="#eae6de" stroke="#eae6de"/><polygon points="70,81 65,76 79,70" fill="#e1ddd5" stroke="#e1ddd5"/><polygon points="42,71 44,79 35,76" fill="#f3efe7" stroke="#f3efe7"/><polygon points="65,76 56,79 58,71" fill="#eae6de" stroke="#eae6de"/><polygon points="35,76 44,79 43,86" fill="#eae6de" stroke="#eae6de"/><polygon points="57,86 56,79 65,76" fill="#e1ddd5" stroke="#e1ddd5"/><polygon points="35,76 43,86 30,81" fill="#e1ddd5" stroke="#e1ddd5"/><polygon points="70,81 57,86 65,76" fill="#d9d4cc" stroke="#d9d4cc"/><polygon points="44,79 50,80.5 50,91 43,86" fill="#eae6de" stroke="#eae6de"/><polygon points="57,86 50,91 50,80.5 56,79" fill="#e1ddd5" stroke="#e1ddd5"/><polygon points="23.5,51 25.8,46.6 31,44.6 36.2,46.6 38.5,51" fill="#2b3054" stroke="#2b3054"/><polygon points="61.5,51 63.8,46.6 69,44.6 74.2,46.6 76.5,51" fill="#2b3054" stroke="#2b3054"/><polygon points="23.5,51 38.5,51 36.2,55.4 31,57.2 25.8,55.4" fill="#1f2340" stroke="#1f2340"/><polygon points="74.2,55.4 69,57.2 63.8,55.4 61.5,51 76.5,51" fill="#1f2340" stroke="#1f2340"/><polygon points="26.6,48 31,46.4 28.4,51.2" fill="#f3efe7" stroke="#f3efe7"/><polygon points="64.6,48 69,46.4 66.4,51.2" fill="#f3efe7" stroke="#f3efe7"/><polygon points="44,82 50,80.5 50,85" fill="#2b3054" stroke="#2b3054"/><polygon points="50,85 50,80.5 56,82" fill="#2b3054" stroke="#2b3054"/><polygon points="44,82 50,85 50,91 46.5,88" fill="#1f2340" stroke="#1f2340"/><polygon points="53.5,88 50,91 50,85 56,82" fill="#1f2340" stroke="#1f2340"/><polygon points="45.6,82.3 49,81.4 47.2,83.6" fill="#5b6088" stroke="#5b6088"/></g></svg>
