<svg xmlns="http://www.w3.org/2000/svg" viewBox="0 0 100 100"><g stroke-width="0.5" stroke-linejoin="round"><polygon points="14.5,15.5 16,8.5 21,7 20.8,10.2 19,14" fill="#e1bc8b" stroke="#e1bc8b"/><polygon points="81,14 79.2,10.2 79,7 84,8.5 85.5,15.5" fill="#dab280" stroke="#dab280"/><polygon points="17,25 14.5,15.5 19,14 19.5,22.5" fill="#dab280" stroke="#dab280"/><polygon points="80.5,22.5 81,14 85.5,15.5 83,25" fill="#d3a976" stroke="#d3a976"/><polygon points="24,36 17,25 19.5,22.5 24,29" fill="#d3a976" stroke="#d3a976"/><polygon points="76,29 80.5,22.5 83,25 76,36" fill="#cc9f6c" stroke="#cc9f6c"/><polygon points="21,7 25,10.5 24.3,17.5 20.8,10.2" fill="#cc9f6c" stroke="#cc9f6c"/><polygon points="79.2,10.2 75.7,17.5 75,10.5 79,7" fill="#c49663" stroke="#c49663"/><polygon points="25,10.5 28.5,19.5 29,27 24.3,17.5" fill="#c49663" stroke="#c49663"/><polygon points="75.7,17.5 71,27 71.5,19.5 75,10.5" fill="#bd8d5b" stroke="#bd8d5b"/><polygon points="28.5,19.5 33,28 37,32 29,27" fill="#bd8d5b" stroke="#bd8d5b"/><polygon points="71,27 63,32 67,28 71.5,19.5" fill="#b58452" stroke="#b58452"/><polygon points="37,32 24,36 24,29 29,27" fill="#bd8d5b" stroke="#bd8d5b"/><polygon points="71,27 76,29 76,36 63,32" fill="#b58452" stroke="#b58452"/><polygon points="19,14 20.8,10.2 24.3,17.5 19.5,22.5" fill="#8f5c4a" stroke="#8f5c4a"/><polygon points="80.5,22.5 75.7,17.5 79.2,10.2 81,14" fill="#875443" stroke="#875443"/><polygon points="19.5,22.5 24.3,17.5 29,27 24,29" fill="#7f4b3c" stroke="#7f4b3c"/><polygon points="76,29 71,27 75.7,17.5 80.5,22.5" fill="#784335" stroke="#784335"/><polygon points="39,25 50,24 36,35" fill="#e8c595" stroke="#e8c595"/><polygon points="64,35 50,24 61,25" fill="#e1bc8b" stroke="#e1bc8b"/><polygon points="50,24 50,37 36,35" fill="#dab280" stroke="#dab280"/><polygon points="64,35 50,37 50,24" fill="#d3a976" stroke="#d3a976"/><polygon points="30,29.5 39,25 36,35" fill="#e1bc8b" stroke="#e1bc8b"/><polygon points="64,35 61,25 70,29.5" fill="#dab280" stroke="#dab280"/><polygon points="23,37 30,29.5 36,35" fill="#dab280" stroke="#dab280"/><polygon points="64,35 70,29.5 77,37" fill="#d3a976" stroke="#d3a976"/><polygon points="23,37 36,35 23.5,45" fill="#d3a976" stroke="#d3a976"/><polygon points="76.5,45 64,35 77,37" fill="#cc9f6c" stroke="#cc9f6c"/><polygon points="36,35 50,37 40,45.5" fill="#cc9f6c" stroke="#cc9f6c"/><polygon points="60,45.5 50,37 64,35" fill="#c49663" stroke="#c49663"/><polygon points="36,35 40,45.5 23.5,45" fill="#bd8d5b" stroke="#bd8d5b"/><polygon points="76.5,45 60,45.5 64,35" fill="#b58452" stroke="#b58452"/><polygon points="19.5,47 23,37 23.5,45" fill="#d3a976" stroke="#d3a976"/><polygon points="76.5,45 77,37 80.5,47" fill="#cc9f6c" stroke="#cc9f6c"/><polygon points="50,37 50,55 40,45.5" fill="#dab280" stroke="#dab280"/><polygon points="60,45.5 50,55 50,37" fill="#d3a976" stroke="#d3a976"/><polygon points="40,45.5 50,55 40,59" fill="#cc9f6c" stroke="#cc9f6c"/><polygon points="60,59 50,55 60,45.5" fill="#c49663" stroke="#c49663"/><polygon points="23.5,45 40,45.5 40,59 25.5,59" fill="#c49663" stroke="#c49663"/><polygon points="74.5,59 60,59 60,45.5 76.5,45" fill="#bd8d5b" stroke="#bd8d5b"/><polygon points="19.5,47 23.5,45 25.5,59 20,57" fill="#cc9f6c" stroke="#cc9f6c"/><polygon points="80,57 74.5,59 76.5,45 80.5,47" fill="#c49663" stroke="#c49663"/><polygon points="20,57 25.5,59 23.5,66" fill="#bd8d5b" stroke="#bd8d5b"/><polygon points="76.5,66 74.5,59 80,57" fill="#b58452" stroke="#b58452"/><polygon points="25.5,59 40,59 36,66 23.5,66" fill="#c49663" stroke="#c49663"/><polygon points="76.5,66 64,66 60,59 74.5,59" fill="#bd8d5b" stroke="#bd8d5b"/><polygon points="40,59 50,55 50,64 36,66" fill="#d3a976" stroke="#d3a976"/><polygon points="64,66 50,64 50,55 60,59" fill="#cc9f6c" stroke="#cc9f6c"/><polygon points="50,64 36,66 38,75 50,76" fill="#f0e3cc" stroke="#f0e3cc"/><polygon points="50,76 62,75 64,66 50,64" fill="#e8dac3" stroke="#e8dac3"/><polygon points="36,66 23.5,66 26.5,75 38,75" fill="#e8dac3" stroke="#e8dac3"/><polygon points="62,75 73.5,75 76.5,66 64,66" fill="#dfd1ba" stroke="#dfd1ba"/><polygon points="26.5,75 29.5,83 35,84 38,75" fill="#dfd1ba" stroke="#dfd1ba"/><polygon points="62,75 65,84 70.5,83 73.5,75" fill="#d7c7b1" stroke="#d7c7b1"/><polygon points="38,75 35,84 50,86 50,76" fill="#e8dac3" stroke="#e8dac3"/><polygon points="50,76 50,86 65,84 62,75" fill="#dfd1ba" stroke="#dfd1ba"/><polygon points="29.5,83 35.5,89 35,84" fill="#d7c7b1" stroke="#d7c7b1"/><polygon points="65,84 64.5,89 70.5,83" fill="#cfbea8" stroke="#cfbea8"/><polygon points="35.5,89 43,91.5 50,86 35,84" fill="#d7c7b1" stroke="#d7c7b1"/><polygon points="65,84 50,86 57,91.5 64.5,89" fill="#cfbea8" stroke="#cfbea8"/><polygon points="43,91.5 50,92 50,86" fill="#cfbea8" stroke="#cfbea8"/><polygon points="50,86 50,92 57,91.5" fill="#c6b59f" stroke="#c6b59f"/><polygon points="50,11 44.5,11.5 41,15.5 42,21.5 50,22" fill="#f3efe7" stroke="#f3efe7"/><polygon points="50,22 58,21.5 59,15.5 55.5,11.5 50,11" fill="#eae6de" stroke="#eae6de"/><polygon points="36,14 30.5,18 35,24.5" fill="#f3efe7" stroke="#f3efe7"/><polygon points="65,24.5 69.5,18 64,14" fill="#eae6de" stroke="#eae6de"/><polygon points="41,15.5 36,14 35,24.5 42,21.5" fill="#e1ddd5" stroke="#e1ddd5"/><polygon points="58,21.5 65,24.5 64,14 59,15.5" fill="#d9d4cc" stroke="#d9d4cc"/><polygon points="30.5,18 29,24.5 35,24.5" fill="#eae6de" stroke="#eae6de"/><polygon points="65,24.5 71,24.5 69.5,18" fill="#e1ddd5" stroke="#e1ddd5"/><polygon points="29,24.5 30,29.5 32.5,34.5 35,24.5" fill="#eae6de" stroke="#eae6de"/><polygon points="65,24.5 67.5,34.5 70,29.5 71,24.5" fill="#e1ddd5" stroke="#e1ddd5"/><polygon points="32.5,34.5 37.5,31 40,29.5 35,24.5" fill="#e1ddd5" stroke="#e1ddd5"/><polygon points="65,24.5 60,29.5 62.5,31 67.5,34.5" fill="#d9d4cc" stroke="#d9d4cc"/><polygon points="35,24.5 40,29.5 42,21.5" fill="#eae6de" stroke="#eae6de"/><polygon points="58,21.5 60,29.5 65,24.5" fill="#e1ddd5" stroke="#e1ddd5"/><polygon points="37.5,31 41.5,37 45.5,32.5 40,29.5" fill="#eae6de" stroke="#eae6de"/><polygon points="60,29.5 54.5,32.5 58.5,37 62.5,31" fill="#e1ddd5" stroke="#e1ddd5"/><polygon points="42,21.5 40,29.5 45.5,32.5 50,22" fill="#e1ddd5" stroke="#e1ddd5"/><polygon points="50,22 54.5,32.5 60,29.5 58,21.5" fill="#d9d4cc" stroke="#d9d4cc"/><polygon points="50,22 45.5,32.5 50,38.5" fill="#eae6de" stroke="#eae6de"/><polygon points="50,38.5 54.5,32.5 50,22" fill="#e1ddd5" stroke="#e1ddd5"/><polygon points="24.4,51 26.6,46.8 31.5,44.9 36.4,46.8 38.6,51" fill="#2b3054" stroke="#2b3054"/><polygon points="61.4,51 63.6,46.8 68.5,44.9 73.4,46.8 75.6,51" fill="#2b3054" stroke="#2b3054"/><polygon points="24.4,51 38.6,51 36.4,55.2 31.5,56.9 26.6,55.2" fill="#1f2340" stroke="#1f2340"/><polygon points="73.4,55.2 68.5,56.9 63.6,55.2 61.4,51 75.6,51" fill="#1f2340" stroke="#1f2340"/><polygon points="27.3,48.2 31.5,46.6 29,51.2" fill="#f3efe7" stroke="#f3efe7"/><polygon points="64.3,48.2 68.5,46.6 66,51.2" fill="#f3efe7" stroke="#f3efe7"/><polygon points="44.5,74.5 50,73.5 50,77.5" fill="#2b3054" stroke="#2b3054"/><polygon points="50,77.5 50,73.5 55.5,74.5" fill="#2b3054" stroke="#2b3054"/><polygon points="44.5,74.5 50,77.5 50,80 47,79" fill="#1f2340" stroke="#1f2340"/><polygon points="53,79 50,80 50,77.5 55.5,74.5" fill="#1f2340" stroke="#1f2340"/><polygon points="45.9,74.7 48.9,74.1 47.2,75.8" fill="#5b6088" stroke="#5b6088"/><polygon points="49.3,79.5 50.7,79.5 50.7,84.3 49.3,84.3" fill="#1f2340" stroke="#1f2340"/><polygon points="50,83.6 50,85.1 46,86.7 45.3,85.3" fill="#1f2340" stroke="#1f2340"/><polygon points="54.7,85.3 54,86.7 50,85.1 50,83.6" fill="#1f2340" stroke="#1f2340"/><polygon points="45.3,85.3 46,86.7 42.3,85.6 42.7,84.2" fill="#1f2340" stroke="#1f2340"/><polygon points="57.3,84.2 57.7,85.6 54,86.7 54.7,85.3" fill="#1f2340" stroke="#1f2340"/></g></svg>
