<svg xmlns="http://www.w3.org/2000/svg" viewBox="0 0 100 100"><g stroke-width="0.5" stroke-linejoin="round"><polygon points="24,21 35,22 31,13 24,9.5" fill="#42343a" stroke="#42343a"/><polygon points="76,9.5 69,13 65,22 76,21" fill="#3b2d33" stroke="#3b2d33"/><polygon points="24,21 24,9.5 17,11 12.5,17.5" fill="#493b40" stroke="#493b40"/><polygon points="87.5,17.5 83,11 76,9.5 76,21" fill="#42343a" stroke="#42343a"/><polygon points="24,21 12.5,17.5 12,26.5 15,31" fill="#3b2d33" stroke="#3b2d33"/><polygon points="85,31 88,26.5 87.5,17.5 76,21" fill="#34262c" stroke="#34262c"/><polygon points="24,20.5 31,20 28.5,14.5 24,13" fill="#eae6de" stroke="#eae6de"/><polygon points="76,13 71.5,14.5 69,20 76,20.5" fill="#e1ddd5" stroke="#e1ddd5"/><polygon points="24,20.5 24,13 19,14.5 16,19" fill="#f3efe7" stroke="#f3efe7"/><polygon points="84,19 81,14.5 76,13 76,20.5" fill="#eae6de" stroke="#eae6de"/><polygon points="24,20.5 16,19 16,26.5" fill="#eae6de" stroke="#eae6de"/><polygon points="84,26.5 84,19 76,20.5" fill="#e1ddd5" stroke="#e1ddd5"/><polygon points="50,19 36,20.5 35,30 50,33" fill="#feac60" stroke="#feac60"/><polygon points="50,33 65,30 64,20.5 50,19" fill="#faa04c" stroke="#faa04c"/><polygon points="36,20.5 22,25 35,30" fill="#feb977" stroke="#feb977"/><polygon points="65,30 78,25 64,20.5" fill="#feac60" stroke="#feac60"/><polygon points="22,25 14.5,31.5 20,44 35,30" fill="#faa04c" stroke="#faa04c"/><polygon points="65,30 80,44 85.5,31.5 78,25" fill="#f4953e" stroke="#f4953e"/><polygon points="14.5,31.5 12.5,40 20,44" fill="#faa04c" stroke="#faa04c"/><polygon points="80,44 87.5,40 85.5,31.5" fill="#f4953e" stroke="#f4953e"/><polygon points="12.5,40 11,49 20,44" fill="#f4953e" stroke="#f4953e"/><polygon points="80,44 89,49 87.5,40" fill="#ee8a2f" stroke="#ee8a2f"/><polygon points="35,30 41,46 50,33" fill="#faa04c" stroke="#faa04c"/><polygon points="50,33 59,46 65,30" fill="#f4953e" stroke="#f4953e"/><polygon points="50,33 41,46 50,50" fill="#ee8a2f" stroke="#ee8a2f"/><polygon points="50,50 59,46 50,33" fill="#e68023" stroke="#e68023"/><polygon points="35,30 20,44 41,46" fill="#ee8a2f" stroke="#ee8a2f"/><polygon points="59,46 80,44 65,30" fill="#e68023" stroke="#e68023"/><polygon points="11,49 21,58 20,44" fill="#ee8a2f" stroke="#ee8a2f"/><polygon points="80,44 79,58 89,49" fill="#e68023" stroke="#e68023"/><polygon points="20,44 21,58 37,60 41,46" fill="#df7614" stroke="#df7614"/><polygon points="59,46 63,60 79,58 80,44" fill="#d46e18" stroke="#d46e18"/><polygon points="41,46 37,60 43,66" fill="#e68023" stroke="#e68023"/><polygon points="57,66 63,60 59,46" fill="#df7614" stroke="#df7614"/><polygon points="41,46 43,66 50,64 50,50" fill="#f4953e" stroke="#f4953e"/><polygon points="50,50 50,64 57,66 59,46" fill="#ee8a2f" stroke="#ee8a2f"/><polygon points="11,49 9,58 14,61.5 21,58" fill="#e68023" stroke="#e68023"/><polygon points="79,58 86,61.5 91,58 89,49" fill="#df7614" stroke="#df7614"/><polygon points="14,61.5 22,70 21,58" fill="#eae6de" stroke="#eae6de"/><polygon points="79,58 78,70 86,61.5" fill="#e1ddd5" stroke="#e1ddd5"/><polygon points="14,61.5 10.5,70 17,73 22,70" fill="#eae6de" stroke="#eae6de"/><polygon points="78,70 83,73 89.5,70 86,61.5" fill="#e1ddd5" stroke="#e1ddd5"/><polygon points="21,58 22,70 37,60" fill="#f3efe7" stroke="#f3efe7"/><polygon points="63,60 78,70 79,58" fill="#eae6de" stroke="#eae6de"/><polygon points="37,60 22,70 34,74" fill="#eae6de" stroke="#eae6de"/><polygon points="66,74 78,70 63,60" fill="#e1ddd5" stroke="#e1ddd5"/><polygon points="37,60 34,74 43,66" fill="#f3efe7" stroke="#f3efe7"/><polygon points="57,66 66,74 63,60" fill="#eae6de" stroke="#eae6de"/><polygon points="43,66 34,74 43,80" fill="#eae6de" stroke="#eae6de"/><polygon points="57,80 66,74 57,66" fill="#e1ddd5" stroke="#e1ddd5"/><polygon points="43,66 43,80 50,82 50,64" fill="#f3efe7" stroke="#f3efe7"/><polygon points="50,64 50,82 57,80 57,66" fill="#eae6de" stroke="#eae6de"/><polygon points="17,73 20.5,80.5 22,70" fill="#e1ddd5" stroke="#e1ddd5"/><polygon points="78,70 79.5,80.5 83,73" fill="#d9d4cc" stroke="#d9d4cc"/><polygon points="22,70 20.5,80.5 29,85.5 34,74" fill="#e1ddd5" stroke="#e1ddd5"/><polygon points="66,74 71,85.5 79.5,80.5 78,70" fill="#d9d4cc" stroke="#d9d4cc"/><polygon points="34,74 29,85.5 38,88.5 43,80" fill="#eae6de" stroke="#eae6de"/><polygon points="57,80 62,88.5 71,85.5 66,74" fill="#e1ddd5" stroke="#e1ddd5"/><polygon points="43,80 38,88.5 50,89.5 50,82" fill="#e1ddd5" stroke="#e1ddd5"/><polygon points="50,82 50,89.5 62,88.5 57,80" fill="#d9d4cc" stroke="#d9d4cc"/><polygon points="25.5,41 30,37.5 36.5,38.5 37.5,41.5 31,43" fill="#f3efe7" stroke="#f3efe7"/><polygon points="69,43 62.5,41.5 63.5,38.5 70,37.5 74.5,41" fill="#eae6de" stroke="#eae6de"/><polygon points="47,19.3 50,19 50,28.5" fill="#493b40" stroke="#493b40"/><polygon points="50,28.5 50,19 53,19.3" fill="#42343a" stroke="#42343a"/><polygon points="34.5,24.5 46.5,28.8 35.5,28.5" fill="#42343a" stroke="#42343a"/><polygon points="64.5,28.5 53.5,28.8 65.5,24.5" fill="#3b2d33" stroke="#3b2d33"/><polygon points="44,35 56,35 54,38 46,38" fill="#3b2d33" stroke="#3b2d33"/><polygon points="14,34 23,38 12.4,39" fill="#42343a" stroke="#42343a"/><polygon points="87.6,39 77,38 86,34" fill="#3b2d33" stroke="#3b2d33"/><polygon points="11.9,43 20.5,46.5 11.3,47.5" fill="#3b2d33" stroke="#3b2d33"/><polygon points="88.7,47.5 79.5,46.5 88.1,43" fill="#34262c" stroke="#34262c"/><polygon points="12.8,64 21.5,64.5 11.5,67.5" fill="#34262c" stroke="#34262c"/><polygon points="88.5,67.5 78.5,64.5 87.2,64" fill="#2d2026" stroke="#2d2026"/><polygon points="18,75.5 25.5,74.5 19.5,79" fill="#2d2026" stroke="#2d2026"/><polygon points="80.5,79 74.5,74.5 82,75.5" fill="#261920" stroke="#261920"/><polygon points="23.5,51 25.8,46.6 31,44.6 36.2,46.6 38.5,51" fill="#2b3054" stroke="#2b3054"/><polygon points="61.5,51 63.8,46.6 69,44.6 74.2,46.6 76.5,51" fill="#2b3054" stroke="#2b3054"/><polygon points="23.5,51 38.5,51 36.2,55.4 31,57.2 25.8,55.4" fill="#1f2340" stroke="#1f2340"/><polygon points="74.2,55.4 69,57.2 63.8,55.4 61.5,51 76.5,51" fill="#1f2340" stroke="#1f2340"/><polygon points="26.6,48 31,46.4 28.4,51.2" fill="#f3efe7" stroke="#f3efe7"/><polygon points="64.6,48 69,46.4 66.4,51.2" fill="#f3efe7" stroke="#f3efe7"/><polygon points="43,64.5 50,63 50,67.5" fill="#2b3054" stroke="#2b3054"/><polygon points="50,67.5 50,63 57,64.5" fill="#2b3054" stroke="#2b3054"/><polygon points="43,64.5 50,67.5 50,71.5 46.5,69.5" fill="#1f2340" stroke="#1f2340"/><polygon points="53.5,69.5 50,71.5 50,67.5 57,64.5" fill="#1f2340" stroke="#1f2340"/><polygon points="44.6,64.8 48.5,63.9 46.5,66.2" fill="#5b6088" stroke="#5b6088"/><polygon points="49.3,71 50,71 50,76.2 46.5,78.3 43,77.2 43.5,76 46.4,76.8 49.2,75" fill="#1f2340" stroke="#1f2340"/><polygon points="50.8,75 53.6,76.8 56.5,76 57,77.2 53.5,78.3 50,76.2 50,71 50.7,71" fill="#1f2340" stroke="#1f2340"/></g></svg>
